<?xml version="1.0" standalone="no"?>
<!DOCTYPE svg PUBLIC "-//W3C//DTD SVG 20010904//EN"
 "http://www.w3.org/TR/2001/REC-SVG-20010904/DTD/svg10.dtd">
<svg version="1.0" xmlns="http://www.w3.org/2000/svg"
 width="512.000000pt" height="512.000000pt" viewBox="0 0 512.000000 512.000000"
 preserveAspectRatio="xMidYMid meet">
<metadata>
Created by potrace 1.16, written by Peter Selinger 2001-2019
</metadata>
<g transform="translate(0.000000,512.000000) scale(0.100000,-0.100000)"
fill="#000000" stroke="none">
<path d="M2448 4513 c6 -2 18 -2 25 0 6 3 1 5 -13 5 -14 0 -19 -2 -12 -5z"/>
<path d="M2383 4503 c9 -2 23 -2 30 0 6 3 -1 5 -18 5 -16 0 -22 -2 -12 -5z"/>
<path d="M2328 4493 c7 -3 16 -2 19 1 4 3 -2 6 -13 5 -11 0 -14 -3 -6 -6z"/>
<path d="M2170 4459 c-89 -25 -272 -91 -267 -95 2 -2 48 11 103 30 54 19 135
46 179 59 93 29 81 34 -15 6z"/>
<path d="M2768 4413 c7 -3 16 -2 19 1 4 3 -2 6 -13 5 -11 0 -14 -3 -6 -6z"/>
<path d="M2848 4403 c7 -3 16 -2 19 1 4 3 -2 6 -13 5 -11 0 -14 -3 -6 -6z"/>
<path d="M1790 4315 c-25 -13 -40 -24 -35 -24 6 0 30 11 55 24 25 13 41 24 35
24 -5 0 -30 -11 -55 -24z"/>
<path d="M2380 4279 c-643 -73 -1235 -518 -1424 -1070 -30 -90 -86 -315 -85
-344 1 -18 22 56 61 209 9 38 14 44 20 30 4 -11 5 -2 2 21 -4 27 -2 36 4 26 7
-10 15 1 31 43 11 31 21 59 21 62 0 16 59 131 116 224 46 76 88 130 150 190
47 47 92 97 100 112 8 15 33 37 57 49 23 12 58 36 78 53 67 56 200 144 303
198 39 20 77 42 84 48 36 32 298 107 437 126 66 8 143 19 170 23 l50 8 -50 0
c-27 0 -84 -3 -125 -8z"/>
<path d="M1820 4260 c-8 -5 -10 -10 -5 -10 6 0 17 5 25 10 8 5 11 10 5 10 -5
0 -17 -5 -25 -10z"/>
<path d="M1745 4224 c-28 -15 -54 -31 -60 -36 -5 -6 18 4 53 22 34 18 62 34
62 36 0 6 -3 5 -55 -22z"/>
<path d="M1623 4158 c-53 -36 -56 -48 -5 -17 44 27 57 37 51 43 -2 2 -23 -9
-46 -26z"/>
<path d="M2410 4133 c-86 -8 -300 -49 -264 -52 6 -1 51 6 100 14 49 8 118 18
154 23 66 7 74 20 10 15z"/>
<path d="M2475 4130 c-4 -6 6 -7 27 -3 44 8 48 13 10 13 -17 0 -34 -4 -37 -10z"/>
<path d="M2693 4103 c9 -2 23 -2 30 0 6 3 -1 5 -18 5 -16 0 -22 -2 -12 -5z"/>
<path d="M2326 3819 c-105 -15 -209 -49 -314 -102 -113 -56 -270 -169 -289
-207 -7 -14 -18 -29 -25 -35 -50 -39 -168 -212 -168 -246 0 -16 16 1 53 58
110 167 245 292 402 370 38 20 74 42 78 49 9 15 109 64 132 64 8 0 15 4 15 9
0 5 21 12 48 16 46 6 58 8 152 25 41 7 42 8 10 8 -19 0 -62 -4 -94 -9z"/>
<path d="M2340 3790 c-13 -8 -12 -10 3 -10 9 0 17 5 17 10 0 12 -1 12 -20 0z"/>
<path d="M2076 3711 c-4 -5 3 -7 14 -4 23 6 26 13 6 13 -8 0 -17 -4 -20 -9z"/>
<path d="M3550 3666 c0 -2 8 -10 18 -17 15 -13 16 -12 3 4 -13 16 -21 21 -21
13z"/>
<path d="M3714 3499 c14 -20 26 -41 26 -47 0 -7 4 -12 9 -12 5 0 12 -11 15
-25 4 -14 11 -25 17 -25 13 0 -27 71 -64 113 l-28 32 25 -36z"/>
<path d="M3698 3440 c15 -16 31 -30 37 -30 5 0 2 5 -8 11 -9 6 -15 14 -12 19
3 5 -3 14 -14 19 -31 17 -31 13 -3 -19z"/>
<path d="M3760 3328 c96 -181 174 -440 171 -573 -1 -16 4 -37 9 -45 27 -41 -1
176 -41 320 -29 103 -109 300 -131 322 -10 10 -15 18 -12 18 3 0 -1 7 -10 15
-28 29 -25 15 14 -57z"/>
<path d="M3791 3360 c14 -31 19 -36 19 -24 0 6 -7 19 -16 30 -14 18 -14 18 -3
-6z"/>
<path d="M3827 3287 c4 -6 8 -14 9 -17 10 -53 25 -72 39 -50 3 6 1 10 -4 10
-6 0 -10 3 -9 8 4 15 -13 50 -28 56 -10 4 -13 2 -7 -7z"/>
<path d="M1460 3250 c0 -5 11 -10 25 -10 14 0 25 5 25 10 0 6 -11 10 -25 10
-14 0 -25 -4 -25 -10z"/>
<path d="M3866 3201 c-6 -10 24 -25 32 -16 3 3 0 5 -7 5 -7 0 -9 5 -6 10 3 6
2 10 -4 10 -5 0 -12 -4 -15 -9z"/>
<path d="M3884 3138 c24 -55 34 -45 27 25 -1 4 -10 7 -21 7 -18 0 -18 -2 -6
-32z"/>
<path d="M2412 3101 c-73 -25 -156 -84 -209 -150 -85 -105 -118 -200 -111
-325 5 -80 32 -172 63 -212 8 -10 4 6 -10 36 -95 213 -17 454 188 584 66 42
103 55 202 71 l80 13 -75 1 c-48 0 -94 -6 -128 -18z"/>
<path d="M3907 3078 c4 -7 8 -16 8 -20 0 -11 15 -22 15 -10 0 19 -12 42 -22
42 -5 0 -6 -6 -1 -12z"/>
<path d="M1441 2994 c0 -11 3 -14 6 -6 3 7 2 16 -1 19 -3 4 -6 -2 -5 -13z"/>
<path d="M3930 2981 c0 -6 5 -13 10 -16 6 -3 10 -17 10 -30 0 -13 5 -27 10
-30 13 -8 13 -1 -2 46 -10 35 -28 54 -28 30z"/>
<path d="M967 2953 c-49 -177 -58 -410 -23 -573 32 -150 56 -207 31 -75 -29
153 -38 308 -26 442 7 70 17 148 22 172 9 42 6 71 -4 34z"/>
<path d="M2830 2872 c58 -87 81 -219 57 -322 -9 -36 -12 -69 -7 -73 12 -13 33
159 26 215 -9 67 -40 146 -72 183 l-26 30 22 -33z"/>
<path d="M1411 2874 c0 -11 3 -14 6 -6 3 7 2 16 -1 19 -3 4 -6 -2 -5 -13z"/>
<path d="M2455 2851 c-22 -10 -56 -36 -75 -57 l-35 -39 40 36 c54 50 80 61
150 69 l60 7 -50 1 c-30 1 -66 -6 -90 -17z"/>
<path d="M862 2810 c0 -14 2 -19 5 -12 2 6 2 18 0 25 -3 6 -5 1 -5 -13z"/>
<path d="M851 2734 c0 -11 3 -14 6 -6 3 7 2 16 -1 19 -3 4 -6 -2 -5 -13z"/>
<path d="M3651 2694 c0 -11 3 -14 6 -6 3 7 2 16 -1 19 -3 4 -6 -2 -5 -13z"/>
<path d="M4033 2600 c0 -47 2 -66 4 -42 2 23 2 61 0 85 -2 23 -4 4 -4 -43z"/>
<path d="M2684 2594 c-28 -55 -63 -77 -135 -82 -58 -4 -61 -5 -38 -18 28 -15
95 -18 103 -5 4 5 0 12 -6 14 -8 4 -7 6 4 6 19 1 85 67 94 94 11 35 -4 28 -22
-9z"/>
<path d="M4300 2616 c0 -8 4 -17 9 -20 5 -4 7 3 4 14 -6 23 -13 26 -13 6z"/>
<path d="M4163 2585 c0 -22 2 -30 4 -17 2 12 2 30 0 40 -3 9 -5 -1 -4 -23z"/>
<path d="M2321 2594 c0 -11 3 -14 6 -6 3 7 2 16 -1 19 -3 4 -6 -2 -5 -13z"/>
<path d="M3262 2569 c4 -114 -69 -302 -159 -414 -94 -115 -253 -218 -381 -244
-111 -23 -272 -9 -387 33 -19 7 -19 7 -1 -5 41 -26 144 -60 199 -66 39 -4 54
-9 45 -15 -18 -13 113 0 187 18 127 31 272 120 329 203 16 22 31 39 35 37 4
-3 7 4 8 14 1 11 20 46 42 78 50 75 78 156 93 277 9 71 9 98 1 106 -9 9 -12 3
-11 -22z"/>
<path d="M3922 2570 c0 -14 2 -19 5 -12 2 6 2 18 0 25 -3 6 -5 1 -5 -13z"/>
<path d="M4307 2437 c-9 -235 -58 -423 -162 -627 -79 -154 -162 -266 -295
-400 -370 -372 -890 -563 -1388 -510 -113 13 -268 48 -367 84 -63 23 -89 26
-72 10 14 -14 258 -83 352 -99 145 -26 394 -24 545 3 545 99 990 416 1238 882
55 102 120 286 148 415 18 84 29 371 15 380 -5 2 -11 -60 -14 -138z"/>
<path d="M3023 2511 c-14 -76 -47 -142 -100 -202 -79 -87 -172 -133 -298 -148
-66 -8 -67 -8 -20 -10 64 -1 154 22 218 57 96 52 197 194 213 298 10 67 0 71
-13 5z"/>
<path d="M4352 2550 c0 -14 2 -19 5 -12 2 6 2 18 0 25 -3 6 -5 1 -5 -13z"/>
<path d="M4161 2524 c0 -11 3 -14 6 -6 3 7 2 16 -1 19 -3 4 -6 -2 -5 -13z"/>
<path d="M2694 2488 l-29 -33 33 29 c30 28 37 36 29 36 -2 0 -16 -15 -33 -32z"/>
<path d="M3911 2494 c0 -11 3 -14 6 -6 3 7 2 16 -1 19 -3 4 -6 -2 -5 -13z"/>
<path d="M4022 2450 c0 -14 2 -19 5 -12 2 6 2 18 0 25 -3 6 -5 1 -5 -13z"/>
<path d="M2647 2453 c-4 -3 -35 -9 -69 -13 l-63 -7 56 -2 c35 -1 62 4 75 14
10 8 16 15 13 15 -3 0 -9 -3 -12 -7z"/>
<path d="M3905 2448 c-2 -7 -13 -47 -24 -88 -11 -41 -23 -83 -26 -92 -4 -10
-3 -18 2 -18 13 0 43 91 52 158 7 49 5 67 -4 40z"/>
<path d="M1441 2404 c0 -11 3 -14 6 -6 3 7 2 16 -1 19 -3 4 -6 -2 -5 -13z"/>
<path d="M4010 2389 c0 -5 5 -7 10 -4 6 3 10 8 10 11 0 2 -4 4 -10 4 -5 0 -10
-5 -10 -11z"/>
<path d="M4352 2305 c0 -16 2 -22 5 -12 2 9 2 23 0 30 -3 6 -5 -1 -5 -18z"/>
<path d="M3601 2303 c-1 -6 -4 -20 -7 -30 -5 -17 -5 -17 6 0 6 10 9 23 6 30
-3 9 -5 9 -5 0z"/>
<path d="M3990 2299 c0 -5 5 -7 10 -4 6 3 10 8 10 11 0 2 -4 4 -10 4 -5 0 -10
-5 -10 -11z"/>
<path d="M1461 2284 c0 -11 3 -14 6 -6 3 7 2 16 -1 19 -3 4 -6 -2 -5 -13z"/>
<path d="M4183 2243 c-7 -3 -13 -12 -13 -21 0 -15 2 -15 17 1 18 18 16 27 -4
20z"/>
<path d="M4341 2224 c0 -11 3 -14 6 -6 3 7 2 16 -1 19 -3 4 -6 -2 -5 -13z"/>
<path d="M3546 2173 c-6 -14 -5 -15 5 -6 7 7 10 15 7 18 -3 3 -9 -2 -12 -12z"/>
<path d="M4335 2179 c-4 -6 -5 -12 -2 -15 2 -3 7 2 10 11 7 17 1 20 -8 4z"/>
<path d="M4150 2142 c0 -5 -3 -18 -6 -26 -4 -12 -2 -15 9 -10 8 3 14 12 13 19
-3 18 -16 32 -16 17z"/>
<path d="M3504 2098 c-4 -7 -14 -24 -22 -38 -14 -24 -13 -24 3 -5 20 24 37 55
31 55 -3 0 -8 -6 -12 -12z"/>
<path d="M3104 2038 l-19 -23 23 19 c12 11 22 21 22 23 0 8 -8 2 -26 -19z"/>
<path d="M4293 2020 c-5 -22 -7 -40 -3 -40 4 0 12 18 18 40 5 22 7 40 3 40 -4
0 -12 -18 -18 -40z"/>
<path d="M3449 2013 c-13 -16 -12 -17 4 -4 16 13 21 21 13 21 -2 0 -10 -8 -17
-17z"/>
<path d="M4106 2014 c-10 -25 1 -29 14 -5 6 12 7 21 1 21 -5 0 -12 -7 -15 -16z"/>
<path d="M921 2015 c-1 -5 6 -32 13 -60 10 -36 14 -42 15 -24 1 15 -6 42 -14
60 -8 19 -14 30 -14 24z"/>
<path d="M3419 1973 c-13 -16 -12 -17 4 -4 9 7 17 15 17 17 0 8 -8 3 -21 -13z"/>
<path d="M4275 1960 c-3 -5 -1 -10 4 -10 6 0 11 5 11 10 0 6 -2 10 -4 10 -3 0
-8 -4 -11 -10z"/>
<path d="M3344 1888 c-27 -29 -72 -73 -99 -97 -64 -56 -28 -32 47 33 50 43
117 116 105 116 -2 0 -26 -24 -53 -52z"/>
<path d="M4254 1904 c-91 -222 -222 -414 -396 -579 -294 -281 -704 -460 -1128
-495 -199 -16 -378 6 -610 77 -45 14 22 -19 75 -37 200 -67 448 -93 642 -66
223 30 507 124 678 225 48 28 89 51 91 51 2 0 36 22 76 50 115 77 217 170 294
266 73 91 164 226 164 244 0 6 4 10 8 10 15 0 137 278 127 288 -3 3 -12 -12
-21 -34z"/>
<path d="M951 1884 c0 -11 3 -14 6 -6 3 7 2 16 -1 19 -3 4 -6 -2 -5 -13z"/>
<path d="M2890 1890 c-8 -5 -10 -10 -5 -10 6 0 17 5 25 10 8 5 11 10 5 10 -5
0 -17 -5 -25 -10z"/>
<path d="M4028 1848 c-7 -17 15 -19 29 -3 4 4 3 5 -4 2 -6 -4 -13 -2 -15 5 -3
8 -6 6 -10 -4z"/>
<path d="M2708 1833 c6 -2 18 -2 25 0 6 3 1 5 -13 5 -14 0 -19 -2 -12 -5z"/>
<path d="M3971 1748 c-18 -28 -26 -46 -18 -40 7 7 18 8 22 4 5 -4 5 -2 2 4 -4
7 0 15 8 18 8 3 14 9 14 13 -1 4 1 16 6 26 17 39 -4 24 -34 -25z"/>
<path d="M3137 1718 c-26 -17 -45 -33 -43 -35 5 -5 96 55 96 62 0 7 1 7 -53
-27z"/>
<path d="M2440 1690 c25 -8 87 -13 79 -6 -2 2 -26 6 -54 9 -34 4 -42 3 -25 -3z"/>
<path d="M2778 1683 c6 -2 18 -2 25 0 6 3 1 5 -13 5 -14 0 -19 -2 -12 -5z"/>
<path d="M2593 1673 c31 -2 83 -2 115 0 31 2 5 3 -58 3 -63 0 -89 -1 -57 -3z"/>
<path d="M3909 1663 c-13 -16 -12 -17 4 -4 16 13 21 21 13 21 -2 0 -10 -8 -17
-17z"/>
<path d="M3040 1660 c-9 -6 -10 -10 -3 -10 6 0 15 5 18 10 8 12 4 12 -15 0z"/>
<path d="M1670 1636 c0 -2 8 -10 18 -17 15 -13 16 -12 3 4 -13 16 -21 21 -21
13z"/>
<path d="M3876 1621 c-10 -11 -15 -25 -10 -32 4 -7 3 -10 -3 -6 -5 3 -50 -35
-99 -84 -242 -246 -538 -412 -857 -481 -85 -18 -135 -22 -297 -23 -218 0 -290
11 -465 70 -55 19 -101 33 -102 31 -6 -6 131 -57 203 -76 129 -34 236 -43 424
-37 195 6 267 19 435 77 200 68 318 131 482 254 103 78 203 167 203 180 0 5
22 29 50 54 27 24 47 49 44 54 -3 5 0 15 6 23 18 22 6 18 -14 -4z"/>
<path d="M2212 1450 c94 -51 350 -98 453 -82 59 9 58 10 -45 11 -132 1 -208
14 -324 52 -50 17 -98 32 -106 35 -8 3 2 -4 22 -16z"/>
<path d="M1920 1426 c0 -3 9 -10 20 -16 11 -6 20 -8 20 -6 0 3 -9 10 -20 16
-11 6 -20 8 -20 6z"/>
<path d="M4229 1363 c-13 -16 -12 -17 4 -4 16 13 21 21 13 21 -2 0 -10 -8 -17
-17z"/>
<path d="M4140 1254 c-251 -296 -678 -558 -1081 -664 -165 -43 -275 -61 -439
-70 -143 -8 -143 -8 50 -5 214 4 294 18 545 93 75 23 334 140 419 191 67 39
283 198 329 243 17 15 33 28 38 28 9 0 110 118 159 185 19 27 41 57 49 67 7
10 11 18 9 18 -2 0 -37 -39 -78 -86z"/>
<path d="M2288 1273 c7 -3 16 -2 19 1 4 3 -2 6 -13 5 -11 0 -14 -3 -6 -6z"/>
<path d="M2328 1263 c6 -2 18 -2 25 0 6 3 1 5 -13 5 -14 0 -19 -2 -12 -5z"/>
<path d="M2398 1253 c7 -3 16 -2 19 1 4 3 -2 6 -13 5 -11 0 -14 -3 -6 -6z"/>
<path d="M1940 1145 c0 -7 81 -47 86 -43 2 3 -17 14 -41 26 -25 12 -45 20 -45
17z"/>
<path d="M2020 940 c8 -5 20 -10 25 -10 6 0 3 5 -5 10 -8 5 -19 10 -25 10 -5
0 -3 -5 5 -10z"/>
<path d="M2070 920 c8 -5 20 -10 25 -10 6 0 3 5 -5 10 -8 5 -19 10 -25 10 -5
0 -3 -5 5 -10z"/>
<path d="M1830 855 c0 -7 61 -37 66 -33 2 3 -12 12 -31 21 -19 9 -35 15 -35
12z"/>
<path d="M1930 804 c0 -7 96 -53 163 -78 35 -13 122 -37 193 -52 119 -25 146
-27 339 -27 148 1 234 5 290 17 50 9 62 13 30 10 -27 -3 -99 -9 -160 -15 -240
-22 -539 22 -768 114 -48 20 -87 34 -87 31z"/>
<path d="M3058 693 c7 -3 16 -2 19 1 4 3 -2 6 -13 5 -11 0 -14 -3 -6 -6z"/>
<path d="M3008 683 c7 -3 16 -2 19 1 4 3 -2 6 -13 5 -11 0 -14 -3 -6 -6z"/>
<path d="M2208 553 c7 -3 16 -2 19 1 4 3 -2 6 -13 5 -11 0 -14 -3 -6 -6z"/>
<path d="M2308 533 c6 -2 18 -2 25 0 6 3 1 5 -13 5 -14 0 -19 -2 -12 -5z"/>
<path d="M2383 523 c9 -2 25 -2 35 0 9 3 1 5 -18 5 -19 0 -27 -2 -17 -5z"/>
</g>
</svg>